# xmcd
#
# Track frame offsets:
#	150
#	6051
#	17674
#	36612
#	52254
#	65082
#	76661
#	89876
#	98965
#	115500
#	132920
#	166561
#	179220
#
# Disc length: 2501 seconds
#
# Revision: 0
# Processed by: cddbd v1.4PL0 Copyright (c) Steve Scherf et al.
# Submitted via: EasyCDDAExtractor 4.6.9.1
#
DISCID=af09c30d
DTITLE=Liz Janes - Done Gone Fire
DYEAR=2001
DGENRE=
TTITLE0=martyr's grind up
TTITLE1=guitar guitar
TTITLE2=2 am
TTITLE3=proposition
TTITLE4=honeybee
TTITLE5=monkey song
TTITLE6=fall down
TTITLE7=mountain jag
TTITLE8=done gone fire
TTITLE9=jerusalem
TTITLE10=tristeza
TTITLE11=ocean jig
TTITLE12=hidden track
EXTD=
EXTT0=
EXTT1=
EXTT2=
EXTT3=
EXTT4=
EXTT5=
EXTT6=
EXTT7=
EXTT8=
EXTT9=
EXTT10=
EXTT11=
EXTT12=
PLAYORDER=
